<?xml version="1.0" standalone="no"?><!DOCTYPE svg PUBLIC "-//W3C//DTD SVG 1.1//EN" "http://www.w3.org/Graphics/SVG/1.1/DTD/svg11.dtd"><svg t="1685448462517" class="icon" viewBox="0 0 1024 1024" version="1.1" xmlns="http://www.w3.org/2000/svg" p-id="9975" data-spm-anchor-id="a313x.7781069.0.i10" xmlns:xlink="http://www.w3.org/1999/xlink" width="200" height="200"><path d="M580.007724 769.041655l-53.671724-50.652689-72.262621-68.131311v350.578759h130.224552V773.314207l-4.290207-4.272552zM269.576828 752.075034v248.76138h130.224551v-386.824828l-130.224551 138.063448zM154.07669 874.513655L85.097931 809.43669v191.382069h130.224552V809.577931l-61.245793 64.935724zM911.412966 417.668414l-88.364138 93.678345v489.472h130.242206V457.18069l-41.878068-39.512276zM638.552276 706.966069v293.870345h130.224552V568.902621l-130.224552 138.063448z" fill="#1296db" p-id="9976" data-spm-anchor-id="a313x.7781069.0.i11" class="selected"></path><path d="M644.784552 23.181241l333.85931 30.578759L1024 384.635586l-112.587034-108.049655-331.405242 351.337931-53.671724-50.617379-100.404966-94.68469-18.679172-17.619862-253.175172 268.446897L0 588.111448l253.175172-268.429241 70.232276-74.434207 70.232276-74.434207 172.738207 162.939586 190.976-202.504827-112.569379-108.067311z" fill="#b73209" p-id="9977" data-spm-anchor-id="a313x.7781069.0.i12" class=""></path></svg>