<svg width="26" height="27" viewBox="0 0 26 27" fill="none" xmlns="http://www.w3.org/2000/svg">
<path d="M24.9737 7.32099L23.256 6.90044C23.256 6.90044 22.8103 6.72043 22.1654 6.4504C22.3056 6.20693 22.437 5.95312 22.5609 5.68604C22.8472 5.07367 22.8324 5.00287 23.0169 4.31672C23.0863 3.75157 23.194 3.18934 23.1394 2.59468C23.0966 2.12397 22.9313 1.52196 22.6996 1.20619C22.4355 0.846144 21.8909 0.838745 21.615 1.4703C21.4173 1.91887 21.3745 2.43533 21.1605 2.88243C20.641 3.97141 19.9298 4.34772 18.7241 4.83909C17.2189 3.9803 15.3684 3.56857 13.0663 3.56857C13.0309 3.56857 12.997 3.57006 12.963 3.57006C12.9291 3.57006 12.8951 3.56857 12.8597 3.56857C10.5945 3.56857 8.76464 3.967 7.27124 4.79923C6.1261 4.3418 5.44138 4.06436 4.93669 3.00784C4.72272 2.55927 4.67993 2.04429 4.48367 1.59571C4.20624 0.962681 3.66169 0.97007 3.39754 1.33011C3.16586 1.64589 3.00207 2.24795 2.9578 2.72014C2.9032 3.3148 3.01092 3.87551 3.08027 4.44214C3.26474 5.12681 3.24999 5.19764 3.53627 5.81001C3.63072 6.01659 3.73548 6.21726 3.84911 6.41352C3.157 6.70421 2.67152 6.90044 2.67152 6.90044L0.952321 7.32099C0.952321 7.32099 -0.105752 7.60429 0.602582 8.891C1.18843 9.95343 2.91943 10.6912 3.5038 10.914L3.14521 13.5111C3.14521 13.4948 3.14226 13.4786 3.14226 13.4624L3.08471 13.9597L2.76595 16.2645C2.34243 19.3323 2.99025 21.9249 4.77436 23.8535C6.57619 25.8027 9.22358 26.7825 12.808 26.7825C12.8641 26.7825 12.9173 26.7796 12.9719 26.7796C13.0206 26.7796 13.0678 26.7825 13.118 26.7825C16.149 26.7825 18.5072 26.0801 20.2529 24.6857C20.2869 24.6591 20.3208 24.6326 20.3548 24.6045C20.43 24.5426 20.5038 24.4776 20.5776 24.4142C20.6366 24.3611 20.6956 24.3094 20.7517 24.2548C20.8152 24.1973 20.8742 24.1368 20.9347 24.0748C20.9745 24.035 21.0159 23.9981 21.0557 23.9568C21.069 23.9435 21.0808 23.9272 21.0941 23.9139C21.1133 23.8933 21.1339 23.8741 21.1531 23.8535C21.2269 23.7738 21.2963 23.6911 21.3656 23.6085C21.3745 23.5996 21.3818 23.5908 21.3892 23.582C22.9918 21.6829 23.5644 19.1906 23.16 16.2645L22.8428 13.9597L22.7852 13.4624C22.7837 13.4801 22.7823 13.4963 22.7808 13.5126L22.4222 10.914C23.0066 10.6912 24.739 9.95343 25.3234 8.891C26.0317 7.60429 24.9737 7.32099 24.9737 7.32099ZM16.8721 20.9244C16.2863 21.5692 15.1441 22.3513 13.0914 22.3572H13.053C12.0495 22.3557 11.2601 22.1698 10.6417 21.9057V21.9072C10.6417 21.9072 10.4012 21.8363 10.0087 21.6829C9.594 21.4453 9.28115 21.1738 9.05389 20.9244C8.34408 20.1409 8.03418 19.0991 8.12125 17.8449L8.7012 9.52108C8.77056 8.53982 9.1498 7.76369 9.82567 7.20445C10.2905 6.81932 11.0962 6.38103 12.3786 6.26446C12.3816 6.25856 12.3845 6.25415 12.3875 6.24825C12.5779 6.22317 12.7697 6.20989 12.963 6.20399C13.1563 6.20989 13.3482 6.22317 13.54 6.24825C13.5415 6.25415 13.5459 6.25856 13.5474 6.26446C14.8312 6.38103 15.6355 6.81932 16.1018 7.20445C16.7762 7.76369 17.1569 8.53982 17.2248 9.52108L17.8048 17.8449C17.8933 19.0991 17.5834 20.1409 16.8721 20.9244Z" fill="#254FA8"/>
</svg>
