<svg width="24" height="27" viewBox="0 0 24 27" fill="none" xmlns="http://www.w3.org/2000/svg">
<path d="M7.47321 26.8389C5.72008 23.15 6.64239 21.0281 8.0266 19.0921C9.50229 16.8787 9.87121 14.7568 9.87121 14.7568C9.87121 14.7568 11.0695 16.2324 10.6091 18.6302C12.6381 16.3254 13.0071 12.6364 12.7296 11.2531C17.3412 14.4809 19.3703 21.5814 16.6963 26.746C30.8999 18.6302 20.2011 6.54962 18.3565 5.25848C19.0013 6.64185 19.0943 8.94745 17.8031 10.0541C15.681 1.93842 10.4246 0.370605 10.4246 0.370605C11.0695 4.52069 8.21106 9.03967 5.44413 12.452C5.35116 10.7919 5.25967 9.68524 4.33736 8.02521C4.1529 11.0686 1.84639 13.4664 1.20151 16.5098C0.370692 20.6592 1.84639 23.6103 7.47321 26.8389Z" fill="#254FA8"/>
</svg>
