<svg width="46" height="46" viewBox="0 0 46 46" fill="none" xmlns="http://www.w3.org/2000/svg">
<path d="M32.8778 12.1012H12.4814C10.8729 12.1012 9.56445 13.4098 9.56445 15.0182V28.894C9.56445 30.5024 10.8731 31.811 12.4814 31.811H32.8778C34.4863 31.811 35.7948 30.5024 35.7948 28.894V15.0182C35.7948 13.4098 34.4863 12.1012 32.8778 12.1012ZM34.4566 28.894C34.4566 29.7644 33.7483 30.4729 32.8778 30.4729H12.4814C11.6108 30.4729 10.9026 29.7644 10.9026 28.894V15.0182C10.9026 14.1475 11.6108 13.4394 12.4814 13.4394H32.8778C33.7483 13.4394 34.4566 14.1475 34.4566 15.0182V28.894ZM30.1473 33.5446H15.0798C14.7103 33.5444 14.4105 33.8437 14.4102 34.2132C14.4099 34.5828 14.7092 34.8826 15.0788 34.883H30.1472C30.5167 34.8832 30.8167 34.5838 30.8168 34.2142C30.8171 33.8446 30.5177 33.5449 30.1482 33.5446H30.1473Z" fill="url(#paint0_linear_124_8)"/>
<path d="M31.6892 17.1346H25.9838C25.6144 17.1346 25.3148 17.4342 25.3148 17.8037C25.3148 18.1733 25.6144 18.4728 25.9838 18.4728H30.1586C30.1473 18.4824 30.1346 18.4898 30.1235 18.5004C27.7633 20.7743 24.3647 24.0419 23.202 25.1439C22.4142 24.4019 20.5724 22.5343 18.9098 20.8088C18.8489 20.7455 18.776 20.6949 18.6955 20.6598C18.6149 20.6246 18.5282 20.6057 18.4404 20.6042C18.2595 20.5985 18.0914 20.6683 17.9637 20.7915L13.0294 25.5496C12.7634 25.8061 12.7556 26.2298 13.0122 26.4957C13.2687 26.7617 13.6924 26.7694 13.9583 26.513L18.4118 22.2186C18.863 22.6842 19.583 23.4247 20.3035 24.1552C20.9945 24.8557 21.5514 25.4112 21.959 25.8057C22.2094 26.0483 22.4005 26.2272 22.543 26.3535C22.6955 26.4882 22.9422 26.7064 23.2367 26.7064C23.3517 26.7064 23.4741 26.673 23.6011 26.5885C23.6647 26.5462 23.7836 26.467 31.0204 19.495V23.5091C31.0199 23.8787 31.3195 24.1784 31.689 24.1787C32.0585 24.1789 32.3583 23.8797 32.3584 23.5101V17.8037C32.3584 17.4341 32.0588 17.1346 31.6892 17.1346ZM31.0166 18.4728H31.0202V18.4759L31.0166 18.4728Z" fill="url(#paint1_linear_124_8)"/>
<defs>
<linearGradient id="paint0_linear_124_8" x1="22.6796" y1="12.1012" x2="22.6796" y2="34.883" gradientUnits="userSpaceOnUse">
<stop stop-color="#FCFAEF"/>
<stop offset="1" stop-color="#FFF3C0"/>
</linearGradient>
<linearGradient id="paint1_linear_124_8" x1="22.5916" y1="17.1346" x2="22.5916" y2="26.7064" gradientUnits="userSpaceOnUse">
<stop stop-color="#FCFAEF"/>
<stop offset="1" stop-color="#FFF3C0"/>
</linearGradient>
</defs>
</svg>
